# xmcd
#
# Track frame offsets: 
#        150
#        23845
#        42321
#        56688
#        82996
#        98456
#        119191
#        143101
#        166484
#        181086
#        191884
#        218500
#        241431
#        259852
#
# Disc length: 3679 seconds
#
# Revision: 0
# Processed by: cddbd v1.5.2PL0 Copyright (c) Steve Scherf et al.
# Submitted via: ExactAudioCopy v1.3
#
DISCID=c10e5d0e
DTITLE=Blue Largo - Sing Your Own Song (feat. Eric Lieberman and Alicia 
DTITLE=Aragon)
DYEAR=2015
DGENRE=Urban Blues
TTITLE0=Walkin' On A Tightrope
TTITLE1=Kindness, Love And Understanding
TTITLE2=Sing Your Own Song
TTITLE3=Tears Of Joy
TTITLE4=Guitar Rhumba
TTITLE5=Prisoner Of The Night
TTITLE6=Evenin'
TTITLE7=Nothin' To Prove
TTITLE8=You Know My Love
TTITLE9=Okie Dokie Stomp
TTITLE10=Elevator To The Gallows
TTITLE11=I Need You So Bad
TTITLE12=Remington Ride
TTITLE13=Sitting On Top Of The World
EXTD=
EXTT0=
EXTT1=
EXTT2=
EXTT3=
EXTT4=
EXTT5=
EXTT6=
EXTT7=
EXTT8=
EXTT9=
EXTT10=
EXTT11=
EXTT12=
EXTT13=
PLAYORDER=
